<svg xmlns="http://www.w3.org/2000/svg" fill="none" viewBox="20 0 150 200" width="29" height="30"
     class="h-8 w-auto absolute inset-0 dark:opacity-0 [[data-mobile-menu-open=true]_&amp;]:opacity-100">
    <g clip-path="url(#workmark__black_svg__a)">
        <g clip-path="url(#workmark__black_svg__b)">
            <path fill="#F25533" fill-rule="evenodd"
                  d="M48.803 140.978v23.429C20.788 157.71 0 133.023 0 103.594 0 86.626 7.168 73.165 18.131 59.96 27.222 49.01 49.67 20.01 56.735 4.009c1.716-3.885 6.09-3.735 7.976-1.647 6.033 6.677 13.47 21.26 15.902 37.802.496 3.37.7 6.123.862 8.309.348 4.691.502 6.777 2.93 6.777 3.816 0 6.313-5.795 6.861-11.776.352-3.833 4.148-5.115 6.765-3.833 12.59 6.17 25.437 35.537 28.543 49.949.974 4.52 1.609 9.19 1.609 14.004 0 29.363-20.695 54.006-48.616 60.768v-23.384H48.803Zm15.289-9.338c9.845 0 17.826-7.567 17.826-16.901 0-14.888-10.959-25.526-16.42-28.76-.369-.218-.553-.328-1.055-.314-.367.01-.91.24-1.172.498-.358.351-.453.752-.643 1.552-.968 4.078-4.015 6.986-7.222 10.045-4.42 4.217-9.141 8.723-9.141 16.979 0 9.334 7.981 16.901 17.827 16.901Z"
                  clip-rule="evenodd"></path>
        </g>
    </g>

</svg>