<svg width="29" height="30" viewBox="0 0 29 30" fill="none" xmlns="http://www.w3.org/2000/svg">
<path d="M0 6.75488V20.2549L11.5 27V23.6323L2.875 18.5613V8.43873L0 6.75488Z" fill="#F96B13"/>
<path d="M20.125 8.43873V21.9387L23 20.2549V6.75488L20.125 8.43873Z" fill="#CC4E00"/>
<path d="M8.625 1.68385L20.125 8.43872L23 6.75487L11.5 0L8.625 1.68385Z" fill="#FFCA73"/>
<path d="M0 6.75486L2.875 8.43872L5.75 6.75486L2.875 5.06128L0 6.75486Z" fill="#FFCA73"/>
<path d="M2.875 8.43873V18.5613L5.75 16.8774V6.75488L2.875 8.43873Z" fill="#CC4E00"/>
<path d="M11.5 23.6323V27L14.375 25.3162V21.9387L11.5 23.6323Z" fill="#CC4E00"/>
<path d="M2.875 18.5613L11.5 23.6323L14.375 21.9387L5.75 16.8774L2.875 18.5613Z" fill="#FFCA73"/>
<path d="M8.625 1.68384V5.06127L17.25 10.1226V20.2549L20.125 21.9387V8.4387L8.625 1.68384Z" fill="#F96B13"/>
</svg>