<svg xmlns="http://www.w3.org/2000/svg" viewBox="0 0 250 250" width="29" height="30">
  <path d="M229.9,70.8c-4.6-4.7-10.3-7.1-17.1-7.1c-6.6,0-12.4,2.4-17.1,7.1c-4.7,4.6-7.1,10.3-7.1,17.1v34.3H160V70.8
    c0-6.8-2.4-12.4-7.1-17.1c-4.6-4.7-10.3-7.1-17.1-7.1c-6.6,0-12.4,2.4-17.1,7.1c-4.7,4.6-7.1,10.3-7.1,17.1v103.2h-28.6V70.8
    c0-6.8-2.4-12.4-7.1-17.1c-4.6-4.7-10.3-7.1-17.1-7.1c-6.6,0-12.4,2.4-17.1,7.1c-4.7,4.6-7.1,10.3-7.1,17.1v108.8
    c0,9.5,3.4,17.7,10.3,24.6c6.8,6.8,15,10.3,24.6,10.3h137.3c9.5,0,17.7-3.4,24.6-10.3c6.8-6.8,10.3-15,10.3-24.6V87.9
    C237,81.1,234.6,75.4,229.9,70.8z" fill="#F60"/>
</svg>
