<svg height="16" viewBox="0 0 20 16" width="20" xmlns="http://www.w3.org/2000/svg">
    <g style="stroke:#000;stroke-width:2;fill:none;fill-rule:evenodd;stroke-linecap:round;stroke-linejoin:round"
       transform="translate(-2 -4)">
        <path d="m21 14.0199615h-6.3684211c-.3488114 0-.6315789-.2896981-.6315789-.6470588v-7.72584388c0-.35736072.2827675-.64705882.6315789-.64705882h5.7368422c.3488114 0 .6315789.2896981.6315789.64705882v10.11764708c0 1.7868036-1.4138376 3.2352941-3.1578947 3.2352941"/>
        <path d="m10 14.0199615h-6.36842105c-.34881142 0-.63157895-.2896981-.63157895-.6470588v-7.72584388c0-.35736072.28276753-.64705882.63157895-.64705882h5.7368421c.34881142 0 .63157895.2896981.63157895.64705882v10.11764708c0 1.7868036-1.41383763 3.2352941-3.15789474 3.2352941"/>
    </g>
</svg>